<svg width="100" height="100" viewBox="0 0 100 100" fill="none" xmlns="http://www.w3.org/2000/svg">
<g clip-path="url(#clip0_10_4)">
<path d="M97.0703 41.4043H84.1797V100H97.0703C98.6875 100 100 98.6875 100 97.0703V44.334C100 42.7168 98.6875 41.4043 97.0703 41.4043Z" fill="#7F5AF0"/>
<path d="M0 44.334V97.0703C0 98.6875 1.3125 100 2.92969 100H15.8203V41.4043H2.92969C1.3125 41.4043 0 42.7168 0 44.334Z" fill="#7F5AF0"/>
<path d="M39.2578 69.8399H47.0703V100H39.2578V69.8399Z" fill="#7F5AF0"/>
<path d="M52.9297 69.8399H60.7422V100H52.9297V69.8399Z" fill="#7F5AF0"/>
<path d="M39.2578 26.1973V38.6094C41.8945 38.4766 44.6309 38.8262 47.0703 39.9512V29.0157C45.1055 26.2852 41.5586 26.0274 39.2578 26.1973Z" fill="#7F5AF0"/>
<path d="M52.9297 29.0116V39.9452C55.3418 38.8339 58.0781 38.4784 60.7422 38.6093V26.2089C57.75 26.0019 54.6621 26.58 52.9297 29.0116Z" fill="#7F5AF0"/>
<path d="M83.0429 12.715L51.0683 0.199201C50.4105 -0.0586117 49.633 -0.0742367 48.9316 0.199201L16.957 12.715C15.4492 13.3049 14.7051 15.0041 15.2949 16.5101C15.8847 18.018 17.584 18.7601 19.0918 18.1703L21.6797 17.1576V100H33.3984V66.9101C33.3984 65.293 34.7109 63.9805 36.3281 63.9805H63.6719C65.289 63.9805 66.6015 65.293 66.6015 66.9101V100H78.3203V17.1664C81.9265 18.5623 81.582 18.3734 81.9746 18.3734C83.1465 18.3734 84.2519 17.6664 84.7051 16.5101C85.2949 15.0043 84.5508 13.3049 83.0429 12.715ZM66.6015 41.959C66.6015 43.873 64.7949 45.2715 62.9433 44.7969C62.9043 44.7871 60.8183 44.2734 58.4219 44.5019C55.6035 44.7695 53.6836 45.875 52.5508 47.8789C51.4219 49.8808 48.5547 49.8437 47.4492 47.8789C44.6328 42.8887 37.1426 44.7734 37.0664 44.7949C35.2109 45.2773 33.3984 43.875 33.3984 41.959V23.6875C33.3984 22.3535 34.2988 21.1875 35.5898 20.8515C35.8867 20.7734 38.5976 20.1015 41.9238 20.3789C45.1855 20.6504 47.916 21.7402 50 23.5703C52.084 21.7402 54.8144 20.6504 58.0762 20.3789C61.4023 20.1015 64.1113 20.7754 64.4101 20.8515C65.7012 21.1875 66.6015 22.3535 66.6015 23.6875V41.959Z" fill="#7F5AF0"/>
</g>
<defs>
<clipPath id="clip0_10_4">
<rect width="100" height="100" fill="white"/>
</clipPath>
</defs>
</svg>
